<svg id="Layer_1" data-name="Layer 1" xmlns="http://www.w3.org/2000/svg" xmlns:xlink="http://www.w3.org/1999/xlink" viewBox="0 0 209.41 151.49"><defs><style>.cls-1{fill:none;stroke:#3d3d3d;stroke-linecap:round;stroke-miterlimit:10;stroke-width:13px;}.cls-2{fill:#3d3d3d;}.cls-3{fill:url(#linear-gradient);}.cls-4{fill:#007cc3;}.cls-5{fill:#84c225;}.cls-6{fill:#898989;}</style><linearGradient id="linear-gradient" x1="10.81" y1="77.02" x2="163.89" y2="77.02" gradientUnits="userSpaceOnUse"><stop offset="0.39" stop-color="#fff"/><stop offset="1" stop-color="#4292ce"/></linearGradient></defs><title>dsfa_logo</title><line class="cls-1" x1="50.75" y1="144.99" x2="132.14" y2="144.99"/><rect class="cls-2" x="70.11" y="126.95" width="45.02" height="16.26"/><path class="cls-2" d="M534.56,109.27H518.22V97.94H386.74a12,12,0,0,0-12,12v72.54a12,12,0,0,0,12,12H531.35a12,12,0,0,0,12-12V128.39h-8.79V109.27Z" transform="translate(-370.97 -68.82)"/><line class="cls-2" x1="163.59" y1="40.44" x2="171.78" y2="40.44"/><path class="cls-2" d="M541.67,103.86" transform="translate(-370.97 -68.82)"/><rect class="cls-3" x="10.81" y="34.28" width="153.08" height="85.48" rx="12" ry="12"/><rect class="cls-4" x="139.35" y="23.36" width="24.53" height="24.53"/><rect class="cls-4" x="195.63" y="17.56" width="6.98" height="6.98"/><rect class="cls-4" x="178.99" y="12.64" width="12.54" height="12.54"/><rect class="cls-4" x="193.54" y="14.36" width="9.09" height="9.09" rx="1.67" ry="1.67"/><rect class="cls-4" x="195.63" y="2.42" width="8.58" height="8.58"/><polygon class="cls-4" points="171.54 29.61 171.54 42.49 180.21 42.49 180.21 48.5 190.43 48.5 190.43 29.61 171.54 29.61"/><rect class="cls-5" x="202.12" width="7.29" height="7.29"/><rect class="cls-5" x="186.71" y="6.95" width="11.38" height="11.38"/><rect class="cls-5" x="186.55" y="22.63" width="10.58" height="10.58"/><rect class="cls-5" x="164.25" y="21.05" width="14.58" height="14.58"/><rect class="cls-5" x="163.25" y="44.72" width="14.58" height="14.58"/><g id="Badge_3_-_Red" data-name="Badge 3 - Red"><path class="cls-6" d="M423.13,165.2c0.09-.93-1.68-1.78-1.82-2.67s1.22-2.3.85-3.12-2.34-.69-2.92-1.39-0.08-2.59-.82-3.13-2.35.57-3.22,0.25-1.35-2.2-2.28-2.29-1.78,1.68-2.67,1.83-2.3-1.22-3.12-.85-0.69,2.34-1.39,2.92-2.59.08-3.13,0.82,0.57,2.35.25,3.22-2.2,1.35-2.29,2.28,1.68,1.78,1.83,2.67-1.22,2.3-.85,3.12,2.34,0.69,2.92,1.39,0.08,2.59.82,3.13,2.35-.57,3.22-0.25,1.35,2.2,2.28,2.29,1.78-1.68,2.67-1.83,2.3,1.22,3.12.85,0.69-2.34,1.39-2.92,2.59-.08,3.13-0.82-0.57-2.35-.25-3.22S423,166.13,423.13,165.2ZM422,163.9a3.26,3.26,0,0,1,.83,1,5.44,5.44,0,0,0-.68-0.75,3.6,3.6,0,0,1-.9-1.12A5.24,5.24,0,0,0,422,163.9Zm-19.76,3.71a2.74,2.74,0,0,0-.43,1.31,0.54,0.54,0,0,1-.11-0.15,2.1,2.1,0,0,1,.39-1.44,2.94,2.94,0,0,0,.47-1.62,1.06,1.06,0,0,0-.06-0.2,1.31,1.31,0,0,1,.2.49A2.94,2.94,0,0,1,402.29,167.61Zm2.74,4.12a4.55,4.55,0,0,0-.19-1.26,3.18,3.18,0,0,1,.34,1.54,4.65,4.65,0,0,0,.15,1.09A2.7,2.7,0,0,1,405,171.73Zm6.77-3.62a3.18,3.18,0,1,1,3.47-2.87A3.18,3.18,0,0,1,411.79,168.11Zm6.64-12.75a0.6,0.6,0,0,0-.3-0.1,3.79,3.79,0,0,0-1.2.21,4,4,0,0,1-1.37.23,1.22,1.22,0,0,1-.3-0.07,2.87,2.87,0,0,1-1.13-1.19,1.22,1.22,0,0,0-2.38-.23,2.85,2.85,0,0,1-1.33,1,1.22,1.22,0,0,1-.31,0,4.09,4.09,0,0,1-1.31-.48,3.75,3.75,0,0,0-1.13-.43,0.59,0.59,0,0,0-.31,0,2.12,2.12,0,0,0-.66,1.37,1.9,1.9,0,0,1-2.31,1.91,1.18,1.18,0,0,0-1.35,1.88,2.94,2.94,0,0,1,.16,1.68,2.86,2.86,0,0,1-1.19,1.13,2.13,2.13,0,0,0-1.09,1.1,0.59,0.59,0,0,0,0,.25,0.84,0.84,0,0,1-.18-0.53,2.13,2.13,0,0,1,1.09-1.1,2.86,2.86,0,0,0,1.19-1.13,2.93,2.93,0,0,0-.16-1.68,1.18,1.18,0,0,1,1.35-1.88,1.9,1.9,0,0,0,2.31-1.91,2.11,2.11,0,0,1,.66-1.37,0.59,0.59,0,0,1,.31,0,3.77,3.77,0,0,1,1.13.43,4.09,4.09,0,0,0,1.31.49,1.18,1.18,0,0,0,.31,0,2.85,2.85,0,0,0,1.33-1,1.22,1.22,0,0,1,2.38.22,2.86,2.86,0,0,0,1.13,1.19,1.18,1.18,0,0,0,.3.07,4.06,4.06,0,0,0,1.37-.23A3.8,3.8,0,0,1,418,155a0.59,0.59,0,0,1,.3.1,0.73,0.73,0,0,1,.24.38Zm2.3,3.77a2.9,2.9,0,0,1-1.52-.69,1.25,1.25,0,0,1-.2-0.36l0.05,0.08a2.89,2.89,0,0,0,1.52.69,2.12,2.12,0,0,1,1.37.66,0.48,0.48,0,0,1,0,.14A2.94,2.94,0,0,0,420.73,159.13Z" transform="translate(-370.97 -68.82)"/></g><path class="cls-6" d="M406,180.93c0-1.45-2.84-2.5-3.2-3.84s1.55-3.71.85-4.92-3.7-.73-4.69-1.72-0.49-4-1.72-4.69-3.54,1.22-4.92.85-2.39-3.2-3.84-3.2-2.5,2.84-3.84,3.2-3.71-1.55-4.92-.85-0.72,3.69-1.72,4.69-4,.49-4.69,1.72,1.22,3.54.85,4.92-3.2,2.39-3.2,3.84,2.84,2.5,3.2,3.84-1.55,3.71-.85,4.92,3.7,0.72,4.69,1.72,0.49,4,1.72,4.69,3.54-1.22,4.92-.85,2.39,3.2,3.84,3.2,2.5-2.84,3.84-3.2,3.71,1.55,4.92.85,0.73-3.69,1.72-4.69,4-.49,4.69-1.72-1.22-3.54-.85-4.92S406,182.38,406,180.93Zm-1.86-1.85a5,5,0,0,1,1.43,1.47,8.42,8.42,0,0,0-1.16-1.06,5.57,5.57,0,0,1-1.54-1.6A8.1,8.1,0,0,0,404.15,179.09Zm-29.88,8.57a4.24,4.24,0,0,0-.47,2.08,0.83,0.83,0,0,1-.19-0.21c-0.29-.51.06-1.41,0.39-2.28a4.54,4.54,0,0,0,.49-2.56,1.64,1.64,0,0,0-.12-0.3,2,2,0,0,1,.39.72A4.54,4.54,0,0,1,374.27,187.66Zm4.81,6a7,7,0,0,0-.48-1.91,4.92,4.92,0,0,1,.74,2.32,7.19,7.19,0,0,0,.39,1.66A4.17,4.17,0,0,1,379.08,193.61Zm9.89-6.55a4.92,4.92,0,1,1,4.92-4.92A4.92,4.92,0,0,1,389,187.06Zm8.37-20.59a0.93,0.93,0,0,0-.47-0.11,5.86,5.86,0,0,0-1.82.5,6.25,6.25,0,0,1-2.07.55,1.88,1.88,0,0,1-.48-0.06,4.43,4.43,0,0,1-1.9-1.66c-0.6-.75-1.23-1.52-1.85-1.52s-1.24.77-1.85,1.52a4.41,4.41,0,0,1-1.91,1.67,1.89,1.89,0,0,1-.48.06,6.32,6.32,0,0,1-2.09-.56,5.79,5.79,0,0,0-1.8-.5,0.92,0.92,0,0,0-.47.11c-0.52.3-.67,1.27-0.81,2.2a2.93,2.93,0,0,1-3.27,3.27c-0.93.15-1.9,0.3-2.2,0.81s0.06,1.41.39,2.28a4.54,4.54,0,0,1,.49,2.56,4.42,4.42,0,0,1-1.66,1.91c-0.75.6-1.52,1.23-1.52,1.85a0.92,0.92,0,0,0,.09.37,1.3,1.3,0,0,1-.36-0.79c0-.62.77-1.24,1.52-1.85a4.42,4.42,0,0,0,1.66-1.91,4.54,4.54,0,0,0-.49-2.56c-0.34-.87-0.68-1.78-0.39-2.28s1.27-.67,2.2-0.81a2.93,2.93,0,0,0,3.27-3.27c0.15-.94.3-1.9,0.81-2.2a0.9,0.9,0,0,1,.47-0.11,5.83,5.83,0,0,1,1.8.5,6.32,6.32,0,0,0,2.09.56,1.83,1.83,0,0,0,.48-0.06,4.41,4.41,0,0,0,1.91-1.66c0.6-.75,1.23-1.52,1.85-1.52s1.24,0.77,1.85,1.52a4.42,4.42,0,0,0,1.9,1.66,1.82,1.82,0,0,0,.48.06,6.28,6.28,0,0,0,2.07-.55,5.87,5.87,0,0,1,1.82-.5,0.92,0.92,0,0,1,.47.11,1.13,1.13,0,0,1,.43.54A0.8,0.8,0,0,0,397.35,166.47Zm4.08,5.47a4.48,4.48,0,0,1-2.43-.84,1.94,1.94,0,0,1-.36-0.53l0.09,0.11a4.47,4.47,0,0,0,2.43.84c0.94,0.15,1.9.3,2.2,0.82a0.75,0.75,0,0,1,.08.2A4.54,4.54,0,0,0,401.43,171.94Z" transform="translate(-370.97 -68.82)"/><path class="cls-6" d="M422.29,181.35c-0.07-.67-1.43-1-1.66-1.63s0.54-1.79.16-2.32-1.75-.16-2.25-0.58-0.42-1.82-1-2.09-1.58.73-2.24,0.63-1.26-1.37-1.93-1.3-1,1.43-1.63,1.66-1.79-.54-2.32-0.16-0.16,1.75-.58,2.26-1.82.42-2.09,1,0.73,1.58.63,2.24-1.37,1.26-1.3,1.93,1.43,1,1.66,1.63-0.54,1.79-.16,2.32,1.75,0.16,2.26.58,0.42,1.82,1,2.09,1.58-.73,2.24-0.63,1.26,1.37,1.93,1.3,1-1.43,1.63-1.66,1.79,0.54,2.32.16,0.16-1.75.58-2.26,1.82-.42,2.09-1-0.73-1.58-.63-2.24S422.36,182,422.29,181.35Zm-0.95-.77a2.35,2.35,0,0,1,.73.62,3.92,3.92,0,0,0-.59-0.44,2.6,2.6,0,0,1-.79-0.67A3.77,3.77,0,0,0,421.34,180.59ZM407.89,186a2,2,0,0,0-.12,1,0.39,0.39,0,0,1-.1-0.09,1.51,1.51,0,0,1,.07-1.08,2.12,2.12,0,0,0,.11-1.21,0.76,0.76,0,0,0-.07-0.13,1,1,0,0,1,.21.31A2.12,2.12,0,0,1,407.89,186Zm2.51,2.53a3.28,3.28,0,0,0-.31-0.86,2.29,2.29,0,0,1,.45,1,3.35,3.35,0,0,0,.26.75A1.94,1.94,0,0,1,410.41,188.5Zm4.28-3.5a2.29,2.29,0,1,1,2-2.51A2.29,2.29,0,0,1,414.68,185Zm2.91-9.94a0.43,0.43,0,0,0-.23,0,2.73,2.73,0,0,0-.82.32,2.91,2.91,0,0,1-.94.35h-0.22a2.06,2.06,0,0,1-1-.68,0.88,0.88,0,0,0-1.71.17,2.06,2.06,0,0,1-.8.86l-0.22,0a2.94,2.94,0,0,1-1-.16,2.7,2.7,0,0,0-.86-0.15,0.43,0.43,0,0,0-.21.07,1.53,1.53,0,0,0-.27,1.06,1.37,1.37,0,0,1-1.36,1.67,0.85,0.85,0,0,0-.69,1.52,2.11,2.11,0,0,1,.35,1.16,2.06,2.06,0,0,1-.68,1,1.53,1.53,0,0,0-.62.93,0.43,0.43,0,0,0,.06.17,0.6,0.6,0,0,1-.2-0.35,1.53,1.53,0,0,1,.62-0.93,2.06,2.06,0,0,0,.68-1,2.11,2.11,0,0,0-.35-1.16,0.85,0.85,0,0,1,.69-1.52,1.37,1.37,0,0,0,1.36-1.67,1.52,1.52,0,0,1,.27-1.06,0.42,0.42,0,0,1,.21-0.07,2.72,2.72,0,0,1,.86.15,3,3,0,0,0,1,.16,0.85,0.85,0,0,0,.22,0,2.05,2.05,0,0,0,.8-0.86,0.88,0.88,0,0,1,1.71-.17,2.06,2.06,0,0,0,1,.68h0.22a2.93,2.93,0,0,0,.94-0.35,2.73,2.73,0,0,1,.82-0.32,0.43,0.43,0,0,1,.23,0,0.53,0.53,0,0,1,.22.23Zm2.15,2.34a2.09,2.09,0,0,1-1.17-.27,0.9,0.9,0,0,1-.19-0.23l0,0a2.08,2.08,0,0,0,1.17.27,1.53,1.53,0,0,1,1.06.27,0.35,0.35,0,0,1,0,.09A2.11,2.11,0,0,0,419.75,177.4Z" transform="translate(-370.97 -68.82)"/></svg>